<?xml version='1.0' encoding='UTF-8' standalone='no'?>
<!-- Created with Fritzing (http://www.fritzing.org/) -->
<svg xmlns="http://www.w3.org/2000/svg" x="0in"  y="0in" viewBox="0 0 180 57.6" height="0.8in" width="2.5in" baseProfile="tiny" version="1.2">
    <desc>
        <referenceFile>Adafruit Pi Cobbler Plus_pcb.svg</referenceFile>
    </desc>
    <desc >Fritzing footprint generated by brd2svg</desc>
    <g  id="silkscreen" gorn="0.1">
        <path stroke-width="0.576"  stroke="white" d="M0.288,50.184L0.288,7.416A6.912,6.912,0,0,1,7.46496,0.288L172.535,0.288A6.912,6.912,0,0,1,179.712,7.416L179.712,50.184A6.912,6.912,0,0,1,172.535,57.312L7.46496,57.312A6.912,6.912,0,0,1,0.288,50.184" fill="none"/>
        <g >
            <title >element:JP1</title>
            <g >
                <title >package:1X20_ROUND</title>
            </g>
        </g>
        <g >
            <title >element:JP2</title>
            <g >
                <title >package:1X20_ROUND</title>
            </g>
        </g>
        <g >
            <title >element:X1</title>
            <g >
                <title >package:RASPBERRYPI_B+_IDC</title>
                <line stroke-width="0.576"  stroke="white" x1="18" y2="36" y1="34.2" x2="19.8" stroke-linecap="round"/>
                <line stroke-width="0.576"  stroke="white" x1="19.8" y2="36" y1="36" x2="23.4" stroke-linecap="round"/>
                <line stroke-width="0.576"  stroke="white" x1="23.4" y2="34.2" y1="36" x2="25.2" stroke-linecap="round"/>
                <line stroke-width="0.576"  stroke="white" x1="25.2" y2="36" y1="34.2" x2="27" stroke-linecap="round"/>
                <line stroke-width="0.576"  stroke="white" x1="27" y2="36" y1="36" x2="30.6" stroke-linecap="round"/>
                <line stroke-width="0.576"  stroke="white" x1="30.6" y2="34.2" y1="36" x2="32.4" stroke-linecap="round"/>
                <line stroke-width="0.576"  stroke="white" x1="32.4" y2="36" y1="34.2" x2="34.2" stroke-linecap="round"/>
                <line stroke-width="0.576"  stroke="white" x1="34.2" y2="36" y1="36" x2="37.8" stroke-linecap="round"/>
                <line stroke-width="0.576"  stroke="white" x1="37.8" y2="34.2" y1="36" x2="39.6" stroke-linecap="round"/>
                <line stroke-width="0.576"  stroke="white" x1="39.6" y2="36" y1="34.2" x2="41.4" stroke-linecap="round"/>
                <line stroke-width="0.576"  stroke="white" x1="41.4" y2="36" y1="36" x2="45" stroke-linecap="round"/>
                <line stroke-width="0.576"  stroke="white" x1="45" y2="34.2" y1="36" x2="46.8" stroke-linecap="round"/>
                <line stroke-width="0.576"  stroke="white" x1="46.8" y2="36" y1="34.2" x2="48.6" stroke-linecap="round"/>
                <line stroke-width="0.576"  stroke="white" x1="48.6" y2="36" y1="36" x2="52.2" stroke-linecap="round"/>
                <line stroke-width="0.576"  stroke="white" x1="52.2" y2="34.2" y1="36" x2="54" stroke-linecap="round"/>
                <line stroke-width="0.576"  stroke="white" x1="54" y2="36" y1="34.2" x2="55.8" stroke-linecap="round"/>
                <line stroke-width="0.576"  stroke="white" x1="55.8" y2="36" y1="36" x2="59.4" stroke-linecap="round"/>
                <line stroke-width="0.576"  stroke="white" x1="59.4" y2="34.2" y1="36" x2="61.2" stroke-linecap="round"/>
                <line stroke-width="0.576"  stroke="white" x1="18" y2="23.4" y1="34.2" x2="18" stroke-linecap="round"/>
                <line stroke-width="0.576"  stroke="white" x1="18" y2="21.6" y1="23.4" x2="19.8" stroke-linecap="round"/>
                <line stroke-width="0.576"  stroke="white" x1="19.8" y2="21.6" y1="21.6" x2="23.4" stroke-linecap="round"/>
                <line stroke-width="0.576"  stroke="white" x1="23.4" y2="23.4" y1="21.6" x2="25.2" stroke-linecap="round"/>
                <line stroke-width="0.576"  stroke="white" x1="25.2" y2="21.6" y1="23.4" x2="27" stroke-linecap="round"/>
                <line stroke-width="0.576"  stroke="white" x1="27" y2="21.6" y1="21.6" x2="30.6" stroke-linecap="round"/>
                <line stroke-width="0.576"  stroke="white" x1="30.6" y2="23.4" y1="21.6" x2="32.4" stroke-linecap="round"/>
                <line stroke-width="0.576"  stroke="white" x1="32.4" y2="21.6" y1="23.4" x2="34.2" stroke-linecap="round"/>
                <line stroke-width="0.576"  stroke="white" x1="34.2" y2="21.6" y1="21.6" x2="37.8" stroke-linecap="round"/>
                <line stroke-width="0.576"  stroke="white" x1="37.8" y2="23.4" y1="21.6" x2="39.6" stroke-linecap="round"/>
                <line stroke-width="0.576"  stroke="white" x1="39.6" y2="21.6" y1="23.4" x2="41.4" stroke-linecap="round"/>
                <line stroke-width="0.576"  stroke="white" x1="41.4" y2="21.6" y1="21.6" x2="45" stroke-linecap="round"/>
                <line stroke-width="0.576"  stroke="white" x1="45" y2="23.4" y1="21.6" x2="46.8" stroke-linecap="round"/>
                <line stroke-width="0.576"  stroke="white" x1="46.8" y2="21.6" y1="23.4" x2="48.6" stroke-linecap="round"/>
                <line stroke-width="0.576"  stroke="white" x1="48.6" y2="21.6" y1="21.6" x2="52.2" stroke-linecap="round"/>
                <line stroke-width="0.576"  stroke="white" x1="52.2" y2="23.4" y1="21.6" x2="54" stroke-linecap="round"/>
                <line stroke-width="0.576"  stroke="white" x1="54" y2="21.6" y1="23.4" x2="55.8" stroke-linecap="round"/>
                <line stroke-width="0.576"  stroke="white" x1="55.8" y2="21.6" y1="21.6" x2="59.4" stroke-linecap="round"/>
                <line stroke-width="0.576"  stroke="white" x1="59.4" y2="23.4" y1="21.6" x2="61.2" stroke-linecap="round"/>
                <line stroke-width="0.576"  stroke="white" x1="61.2" y2="21.6" y1="23.4" x2="63" stroke-linecap="round"/>
                <line stroke-width="0.576"  stroke="white" x1="63" y2="21.6" y1="21.6" x2="66.6" stroke-linecap="round"/>
                <line stroke-width="0.576"  stroke="white" x1="66.6" y2="23.4" y1="21.6" x2="68.4" stroke-linecap="round"/>
                <line stroke-width="0.576"  stroke="white" x1="68.4" y2="21.6" y1="23.4" x2="70.2" stroke-linecap="round"/>
                <line stroke-width="0.576"  stroke="white" x1="70.2" y2="21.6" y1="21.6" x2="73.8" stroke-linecap="round"/>
                <line stroke-width="0.576"  stroke="white" x1="73.8" y2="23.4" y1="21.6" x2="75.6" stroke-linecap="round"/>
                <line stroke-width="0.576"  stroke="white" x1="75.6" y2="21.6" y1="23.4" x2="77.4" stroke-linecap="round"/>
                <line stroke-width="0.576"  stroke="white" x1="77.4" y2="21.6" y1="21.6" x2="81" stroke-linecap="round"/>
                <line stroke-width="0.576"  stroke="white" x1="81" y2="23.4" y1="21.6" x2="82.8" stroke-linecap="round"/>
                <line stroke-width="0.576"  stroke="white" x1="82.8" y2="21.6" y1="23.4" x2="84.6" stroke-linecap="round"/>
                <line stroke-width="0.576"  stroke="white" x1="84.6" y2="21.6" y1="21.6" x2="88.2" stroke-linecap="round"/>
                <line stroke-width="0.576"  stroke="white" x1="88.2" y2="23.4" y1="21.6" x2="90" stroke-linecap="round"/>
                <line stroke-width="0.576"  stroke="white" x1="90" y2="21.6" y1="23.4" x2="91.8" stroke-linecap="round"/>
                <line stroke-width="0.576"  stroke="white" x1="91.8" y2="21.6" y1="21.6" x2="95.4" stroke-linecap="round"/>
                <line stroke-width="0.576"  stroke="white" x1="95.4" y2="23.4" y1="21.6" x2="97.2" stroke-linecap="round"/>
                <line stroke-width="0.576"  stroke="white" x1="97.2" y2="21.6" y1="23.4" x2="99" stroke-linecap="round"/>
                <line stroke-width="0.576"  stroke="white" x1="99" y2="21.6" y1="21.6" x2="102.6" stroke-linecap="round"/>
                <line stroke-width="0.576"  stroke="white" x1="104.4" y2="21.6" y1="23.4" x2="102.6" stroke-linecap="round"/>
                <line stroke-width="0.576"  stroke="white" x1="104.4" y2="21.6" y1="23.4" x2="106.2" stroke-linecap="round"/>
                <line stroke-width="0.576"  stroke="white" x1="109.8" y2="21.6" y1="21.6" x2="106.2" stroke-linecap="round"/>
                <line stroke-width="0.576"  stroke="white" x1="109.8" y2="23.4" y1="21.6" x2="111.6" stroke-linecap="round"/>
                <line stroke-width="0.576"  stroke="white" x1="111.6" y2="36" y1="34.2" x2="109.8" stroke-linecap="round"/>
                <line stroke-width="0.576"  stroke="white" x1="109.8" y2="36" y1="36" x2="106.2" stroke-linecap="round"/>
                <line stroke-width="0.576"  stroke="white" x1="104.4" y2="36" y1="34.2" x2="106.2" stroke-linecap="round"/>
                <line stroke-width="0.576"  stroke="white" x1="104.4" y2="36" y1="34.2" x2="102.6" stroke-linecap="round"/>
                <line stroke-width="0.576"  stroke="white" x1="102.6" y2="36" y1="36" x2="99" stroke-linecap="round"/>
                <line stroke-width="0.576"  stroke="white" x1="97.2" y2="36" y1="34.2" x2="99" stroke-linecap="round"/>
                <line stroke-width="0.576"  stroke="white" x1="97.2" y2="36" y1="34.2" x2="95.4" stroke-linecap="round"/>
                <line stroke-width="0.576"  stroke="white" x1="95.4" y2="36" y1="36" x2="91.8" stroke-linecap="round"/>
                <line stroke-width="0.576"  stroke="white" x1="90" y2="36" y1="34.2" x2="91.8" stroke-linecap="round"/>
                <line stroke-width="0.576"  stroke="white" x1="90" y2="36" y1="34.2" x2="88.2" stroke-linecap="round"/>
                <line stroke-width="0.576"  stroke="white" x1="88.2" y2="36" y1="36" x2="84.6" stroke-linecap="round"/>
                <line stroke-width="0.576"  stroke="white" x1="82.8" y2="36" y1="34.2" x2="84.6" stroke-linecap="round"/>
                <line stroke-width="0.576"  stroke="white" x1="82.8" y2="36" y1="34.2" x2="81" stroke-linecap="round"/>
                <line stroke-width="0.576"  stroke="white" x1="81" y2="36" y1="36" x2="77.4" stroke-linecap="round"/>
                <line stroke-width="0.576"  stroke="white" x1="75.6" y2="36" y1="34.2" x2="77.4" stroke-linecap="round"/>
                <line stroke-width="0.576"  stroke="white" x1="75.6" y2="36" y1="34.2" x2="73.8" stroke-linecap="round"/>
                <line stroke-width="0.576"  stroke="white" x1="73.8" y2="36" y1="36" x2="70.2" stroke-linecap="round"/>
                <line stroke-width="0.576"  stroke="white" x1="68.4" y2="36" y1="34.2" x2="70.2" stroke-linecap="round"/>
                <line stroke-width="0.576"  stroke="white" x1="68.4" y2="36" y1="34.2" x2="66.6" stroke-linecap="round"/>
                <line stroke-width="0.576"  stroke="white" x1="66.6" y2="36" y1="36" x2="63" stroke-linecap="round"/>
                <line stroke-width="0.576"  stroke="white" x1="61.2" y2="36" y1="34.2" x2="63" stroke-linecap="round"/>
                <line stroke-width="0.576"  stroke="white" x1="25.2" y2="34.2" y1="23.4" x2="25.2" stroke-linecap="round"/>
                <line stroke-width="0.576"  stroke="white" x1="32.4" y2="34.2" y1="23.4" x2="32.4" stroke-linecap="round"/>
                <line stroke-width="0.576"  stroke="white" x1="39.6" y2="34.2" y1="23.4" x2="39.6" stroke-linecap="round"/>
                <line stroke-width="0.576"  stroke="white" x1="46.8" y2="34.2" y1="23.4" x2="46.8" stroke-linecap="round"/>
                <line stroke-width="0.576"  stroke="white" x1="54" y2="34.2" y1="23.4" x2="54" stroke-linecap="round"/>
                <line stroke-width="0.576"  stroke="white" x1="61.2" y2="34.2" y1="23.4" x2="61.2" stroke-linecap="round"/>
                <line stroke-width="0.576"  stroke="white" x1="68.4" y2="34.2" y1="23.4" x2="68.4" stroke-linecap="round"/>
                <line stroke-width="0.576"  stroke="white" x1="75.6" y2="34.2" y1="23.4" x2="75.6" stroke-linecap="round"/>
                <line stroke-width="0.576"  stroke="white" x1="82.8" y2="34.2" y1="23.4" x2="82.8" stroke-linecap="round"/>
                <line stroke-width="0.576"  stroke="white" x1="90" y2="34.2" y1="23.4" x2="90" stroke-linecap="round"/>
                <line stroke-width="0.576"  stroke="white" x1="97.2" y2="34.2" y1="23.4" x2="97.2" stroke-linecap="round"/>
                <line stroke-width="0.576"  stroke="white" x1="104.4" y2="34.2" y1="23.4" x2="104.4" stroke-linecap="round"/>
                <line stroke-width="0.576"  stroke="white" x1="111.6" y2="34.2" y1="23.4" x2="111.6" stroke-linecap="round"/>
                <line stroke-width="0.576"  stroke="white" x1="20.376" y2="37.224" y1="37.224" x2="22.824" stroke-linecap="round"/>
                <line stroke-width="0.576"  stroke="white" x1="22.824" y2="39.6" y1="37.224" x2="21.6" stroke-linecap="round"/>
                <line stroke-width="0.576"  stroke="white" x1="21.6" y2="37.224" y1="39.6" x2="20.376" stroke-linecap="round"/>
                <line stroke-width="0.576"  stroke="white" x1="21.6" y2="38.88" y1="39.6" x2="21.6" stroke-linecap="round"/>
                <line stroke-width="0.576"  stroke="white" x1="172.772" y2="16.0441" y1="16.0441" x2="7.22837" stroke-linecap="round"/>
                <line stroke-width="0.576"  stroke="white" x1="7.22837" y2="41.5559" y1="16.0441" x2="7.22837" stroke-linecap="round"/>
                <line stroke-width="0.576"  stroke="white" x1="172.772" y2="41.5559" y1="16.0441" x2="172.772" stroke-linecap="round"/>
                <line stroke-width="0.576"  stroke="white" x1="7.22837" y2="41.5559" y1="41.5559" x2="83.6222" stroke-linecap="round"/>
                <line stroke-width="0.576"  stroke="white" x1="96.3778" y2="41.5559" y1="41.5559" x2="172.772" stroke-linecap="round"/>
                <line stroke-width="0.576"  stroke="white" x1="83.6222" y2="38.7212" y1="38.7212" x2="96.3778" stroke-linecap="round"/>
                <line stroke-width="0.576"  stroke="white" x1="83.6222" y2="38.7212" y1="41.5559" x2="83.6222" stroke-linecap="round"/>
                <line stroke-width="0.576"  stroke="white" x1="96.3778" y2="41.5559" y1="38.7212" x2="96.3778" stroke-linecap="round"/>
                <line stroke-width="0.576"  stroke="white" x1="111.6" y2="21.6" y1="23.4" x2="113.4" stroke-linecap="round"/>
                <line stroke-width="0.576"  stroke="white" x1="117" y2="21.6" y1="21.6" x2="113.4" stroke-linecap="round"/>
                <line stroke-width="0.576"  stroke="white" x1="117" y2="23.4" y1="21.6" x2="118.8" stroke-linecap="round"/>
                <line stroke-width="0.576"  stroke="white" x1="118.8" y2="36" y1="34.2" x2="117" stroke-linecap="round"/>
                <line stroke-width="0.576"  stroke="white" x1="117" y2="36" y1="36" x2="113.4" stroke-linecap="round"/>
                <line stroke-width="0.576"  stroke="white" x1="111.6" y2="36" y1="34.2" x2="113.4" stroke-linecap="round"/>
                <line stroke-width="0.576"  stroke="white" x1="118.8" y2="34.2" y1="23.4" x2="118.8" stroke-linecap="round"/>
                <line stroke-width="0.576"  stroke="white" x1="118.8" y2="21.6" y1="23.4" x2="120.6" stroke-linecap="round"/>
                <line stroke-width="0.576"  stroke="white" x1="124.2" y2="21.6" y1="21.6" x2="120.6" stroke-linecap="round"/>
                <line stroke-width="0.576"  stroke="white" x1="124.2" y2="23.4" y1="21.6" x2="126" stroke-linecap="round"/>
                <line stroke-width="0.576"  stroke="white" x1="126" y2="36" y1="34.2" x2="124.2" stroke-linecap="round"/>
                <line stroke-width="0.576"  stroke="white" x1="124.2" y2="36" y1="36" x2="120.6" stroke-linecap="round"/>
                <line stroke-width="0.576"  stroke="white" x1="118.8" y2="36" y1="34.2" x2="120.6" stroke-linecap="round"/>
                <line stroke-width="0.576"  stroke="white" x1="126" y2="34.2" y1="23.4" x2="126" stroke-linecap="round"/>
                <line stroke-width="0.576"  stroke="white" x1="126" y2="21.6" y1="23.4" x2="127.8" stroke-linecap="round"/>
                <line stroke-width="0.576"  stroke="white" x1="131.4" y2="21.6" y1="21.6" x2="127.8" stroke-linecap="round"/>
                <line stroke-width="0.576"  stroke="white" x1="131.4" y2="23.4" y1="21.6" x2="133.2" stroke-linecap="round"/>
                <line stroke-width="0.576"  stroke="white" x1="133.2" y2="36" y1="34.2" x2="131.4" stroke-linecap="round"/>
                <line stroke-width="0.576"  stroke="white" x1="131.4" y2="36" y1="36" x2="127.8" stroke-linecap="round"/>
                <line stroke-width="0.576"  stroke="white" x1="126" y2="36" y1="34.2" x2="127.8" stroke-linecap="round"/>
                <line stroke-width="0.576"  stroke="white" x1="133.2" y2="34.2" y1="23.4" x2="133.2" stroke-linecap="round"/>
                <line stroke-width="0.576"  stroke="white" x1="133.2" y2="21.6" y1="23.4" x2="135" stroke-linecap="round"/>
                <line stroke-width="0.576"  stroke="white" x1="138.6" y2="21.6" y1="21.6" x2="135" stroke-linecap="round"/>
                <line stroke-width="0.576"  stroke="white" x1="138.6" y2="23.4" y1="21.6" x2="140.4" stroke-linecap="round"/>
                <line stroke-width="0.576"  stroke="white" x1="140.4" y2="36" y1="34.2" x2="138.6" stroke-linecap="round"/>
                <line stroke-width="0.576"  stroke="white" x1="138.6" y2="36" y1="36" x2="135" stroke-linecap="round"/>
                <line stroke-width="0.576"  stroke="white" x1="133.2" y2="36" y1="34.2" x2="135" stroke-linecap="round"/>
                <line stroke-width="0.576"  stroke="white" x1="140.4" y2="34.2" y1="23.4" x2="140.4" stroke-linecap="round"/>
                <line stroke-width="0.576"  stroke="white" x1="140.4" y2="21.6" y1="23.4" x2="142.2" stroke-linecap="round"/>
                <line stroke-width="0.576"  stroke="white" x1="145.8" y2="21.6" y1="21.6" x2="142.2" stroke-linecap="round"/>
                <line stroke-width="0.576"  stroke="white" x1="145.8" y2="23.4" y1="21.6" x2="147.6" stroke-linecap="round"/>
                <line stroke-width="0.576"  stroke="white" x1="147.6" y2="36" y1="34.2" x2="145.8" stroke-linecap="round"/>
                <line stroke-width="0.576"  stroke="white" x1="145.8" y2="36" y1="36" x2="142.2" stroke-linecap="round"/>
                <line stroke-width="0.576"  stroke="white" x1="140.4" y2="36" y1="34.2" x2="142.2" stroke-linecap="round"/>
                <line stroke-width="0.576"  stroke="white" x1="147.6" y2="34.2" y1="23.4" x2="147.6" stroke-linecap="round"/>
                <line stroke-width="0.576"  stroke="white" x1="147.6" y2="21.6" y1="23.4" x2="149.4" stroke-linecap="round"/>
                <line stroke-width="0.576"  stroke="white" x1="153" y2="21.6" y1="21.6" x2="149.4" stroke-linecap="round"/>
                <line stroke-width="0.576"  stroke="white" x1="153" y2="23.4" y1="21.6" x2="154.8" stroke-linecap="round"/>
                <line stroke-width="0.576"  stroke="white" x1="154.8" y2="36" y1="34.2" x2="153" stroke-linecap="round"/>
                <line stroke-width="0.576"  stroke="white" x1="153" y2="36" y1="36" x2="149.4" stroke-linecap="round"/>
                <line stroke-width="0.576"  stroke="white" x1="147.6" y2="36" y1="34.2" x2="149.4" stroke-linecap="round"/>
                <line stroke-width="0.576"  stroke="white" x1="154.8" y2="34.2" y1="23.4" x2="154.8" stroke-linecap="round"/>
                <line stroke-width="0.576"  stroke="white" x1="154.8" y2="21.6" y1="23.4" x2="156.6" stroke-linecap="round"/>
                <line stroke-width="0.576"  stroke="white" x1="160.2" y2="21.6" y1="21.6" x2="156.6" stroke-linecap="round"/>
                <line stroke-width="0.576"  stroke="white" x1="160.2" y2="23.4" y1="21.6" x2="162" stroke-linecap="round"/>
                <line stroke-width="0.576"  stroke="white" x1="162" y2="36" y1="34.2" x2="160.2" stroke-linecap="round"/>
                <line stroke-width="0.576"  stroke="white" x1="160.2" y2="36" y1="36" x2="156.6" stroke-linecap="round"/>
                <line stroke-width="0.576"  stroke="white" x1="154.8" y2="36" y1="34.2" x2="156.6" stroke-linecap="round"/>
                <line stroke-width="0.576"  stroke="white" x1="162" y2="34.2" y1="23.4" x2="162" stroke-linecap="round"/>
            </g>
        </g>
    </g>
    <g  id="copper1" gorn="0.2">
        <g  id="copper0" gorn="0.2.0">
            <circle connectorname="SDA" stroke-width="1.296"  r="2.06532" stroke="#F7BD13" cx="28.8" id="connector1pad" cy="50.4" fill="none" gorn="0.2.0.0"/>
            <circle connectorname="GND" stroke-width="1.296"  r="2.06532" stroke="#F7BD13" cx="36" id="connector49pad" cy="25.2" fill="none" gorn="0.2.0.1"/>
            <circle connectorname="GPIO25" stroke-width="1.296"  r="2.06532" stroke="#F7BD13" cx="93.6" id="connector65pad" cy="25.2" fill="none" gorn="0.2.0.2"/>
            <circle connectorname="SCL" stroke-width="1.296"  r="2.06532" stroke="#F7BD13" cx="36" id="connector2pad" cy="50.4" fill="none" gorn="0.2.0.3"/>
            <circle connectorname="GPIO20" stroke-width="1.296"  r="2.06532" stroke="#F7BD13" cx="151.2" id="connector81pad" cy="25.2" fill="none" gorn="0.2.0.4"/>
            <circle connectorname="GPIO4" stroke-width="1.296"  r="2.06532" stroke="#F7BD13" cx="43.2" id="connector3pad" cy="50.4" fill="none" gorn="0.2.0.5"/>
            <circle connectorname="GND" stroke-width="1.296"  r="2.06532" stroke="#F7BD13" cx="64.8" id="connector57pad" cy="25.2" fill="none" gorn="0.2.0.6"/>
            <circle connectorname="GND" stroke-width="1.296"  r="2.06532" stroke="#F7BD13" cx="50.4" id="connector4pad" cy="50.4" fill="none" gorn="0.2.0.7"/>
            <circle connectorname="GND" stroke-width="1.296"  r="2.06532" stroke="#F7BD13" cx="122.4" id="connector73pad" cy="25.2" fill="none" gorn="0.2.0.8"/>
            <circle connectorname="GPIO17" stroke-width="1.296"  r="2.06532" stroke="#F7BD13" cx="57.6" id="connector5pad" cy="50.4" fill="none" gorn="0.2.0.9"/>
            <circle connectorname="+5V" stroke-width="1.296"  r="2.06532" stroke="#F7BD13" cx="21.6" id="connector45pad" cy="25.2" fill="none" gorn="0.2.0.10"/>
            <circle connectorname="GPIO27" stroke-width="1.296"  r="2.06532" stroke="#F7BD13" cx="64.8" id="connector6pad" cy="50.4" fill="none" gorn="0.2.0.11"/>
            <circle connectorname="RXD" stroke-width="1.296"  r="2.06532" stroke="#F7BD13" cx="50.4" id="connector53pad" cy="25.2" fill="none" gorn="0.2.0.12"/>
            <circle connectorname="GPIO22" stroke-width="1.296"  r="2.06532" stroke="#F7BD13" cx="72" id="connector7pad" cy="50.4" fill="none" gorn="0.2.0.13"/>
            <circle connectorname="GPIO24" stroke-width="1.296"  r="2.06532" stroke="#F7BD13" cx="79.2" id="connector61pad" cy="25.2" fill="none" gorn="0.2.0.14"/>
            <circle connectorname="+3.3V" stroke-width="1.296"  r="2.06532" stroke="#F7BD13" cx="79.2" id="connector8pad" cy="50.4" fill="none" gorn="0.2.0.15"/>
            <circle connectorname="CE1" stroke-width="1.296"  r="2.06532" stroke="#F7BD13" cx="108" id="connector69pad" cy="25.2" fill="none" gorn="0.2.0.16"/>
            <circle connectorname="MOSI" stroke-width="1.296"  r="2.06532" stroke="#F7BD13" cx="86.4" id="connector9pad" cy="50.4" fill="none" gorn="0.2.0.17"/>
            <circle connectorname="GND" stroke-width="1.296"  r="2.06532" stroke="#F7BD13" cx="136.8" id="connector77pad" cy="25.2" fill="none" gorn="0.2.0.18"/>
            <circle connectorname="MISO" stroke-width="1.296"  r="2.06532" stroke="#F7BD13" cx="93.6" id="connector10pad" cy="50.4" fill="none" gorn="0.2.0.19"/>
            <circle connectorname="P$1" stroke-width="2.12599"  r="4.6063" stroke="#F7BD13" cx="172.8" id="connector43pad" cy="50.4" fill="none" gorn="0.2.0.20"/>
            <circle connectorname="SCLK" stroke-width="1.296"  r="2.06532" stroke="#F7BD13" cx="100.8" id="connector11pad" cy="50.4" fill="none" gorn="0.2.0.21"/>
            <circle connectorname="+5V" stroke-width="1.296"  r="2.06532" stroke="#F7BD13" cx="28.8" id="connector47pad" cy="25.2" fill="none" gorn="0.2.0.22"/>
            <circle connectorname="GND" stroke-width="1.296"  r="2.06532" stroke="#F7BD13" cx="108" id="connector12pad" cy="50.4" fill="none" gorn="0.2.0.23"/>
            <circle connectorname="TXD" stroke-width="1.296"  r="2.06532" stroke="#F7BD13" cx="43.2" id="connector51pad" cy="25.2" fill="none" gorn="0.2.0.24"/>
            <circle connectorname="EEDAT" stroke-width="1.296"  r="2.06532" stroke="#F7BD13" cx="115.2" id="connector13pad" cy="50.4" fill="none" gorn="0.2.0.25"/>
            <circle connectorname="GPIO18" stroke-width="1.296"  r="2.06532" stroke="#F7BD13" cx="57.6" id="connector55pad" cy="25.2" fill="none" gorn="0.2.0.26"/>
            <circle connectorname="GPIO5" stroke-width="1.296"  r="2.06532" stroke="#F7BD13" cx="122.4" id="connector14pad" cy="50.4" fill="none" gorn="0.2.0.27"/>
            <circle connectorname="GPIO23" stroke-width="1.296"  r="2.06532" stroke="#F7BD13" cx="72" id="connector59pad" cy="25.2" fill="none" gorn="0.2.0.28"/>
            <circle connectorname="GPIO6" stroke-width="1.296"  r="2.06532" stroke="#F7BD13" cx="129.6" id="connector15pad" cy="50.4" fill="none" gorn="0.2.0.29"/>
            <circle connectorname="GND" stroke-width="1.296"  r="2.06532" stroke="#F7BD13" cx="86.4" id="connector63pad" cy="25.2" fill="none" gorn="0.2.0.30"/>
            <circle connectorname="GPIO13" stroke-width="1.296"  r="2.06532" stroke="#F7BD13" cx="136.8" id="connector16pad" cy="50.4" fill="none" gorn="0.2.0.31"/>
            <circle connectorname="CE0" stroke-width="1.296"  r="2.06532" stroke="#F7BD13" cx="100.8" id="connector67pad" cy="25.2" fill="none" gorn="0.2.0.32"/>
            <circle connectorname="GPIO19" stroke-width="1.296"  r="2.06532" stroke="#F7BD13" cx="144" id="connector17pad" cy="50.4" fill="none" gorn="0.2.0.33"/>
            <circle connectorname="EECLK" stroke-width="1.296"  r="2.06532" stroke="#F7BD13" cx="115.2" id="connector71pad" cy="25.2" fill="none" gorn="0.2.0.34"/>
            <circle connectorname="GPIO26" stroke-width="1.296"  r="2.06532" stroke="#F7BD13" cx="151.2" id="connector18pad" cy="50.4" fill="none" gorn="0.2.0.35"/>
            <circle connectorname="GPIO12" stroke-width="1.296"  r="2.06532" stroke="#F7BD13" cx="129.6" id="connector75pad" cy="25.2" fill="none" gorn="0.2.0.36"/>
            <circle connectorname="GND" stroke-width="1.296"  r="2.06532" stroke="#F7BD13" cx="158.4" id="connector19pad" cy="50.4" fill="none" gorn="0.2.0.37"/>
            <circle connectorname="GPIO16" stroke-width="1.296"  r="2.06532" stroke="#F7BD13" cx="144" id="connector79pad" cy="25.2" fill="none" gorn="0.2.0.38"/>
            <circle connectorname="+5V" stroke-width="1.296"  r="2.06532" stroke="#F7BD13" cx="21.6" id="connector20pad" cy="7.2" fill="none" gorn="0.2.0.39"/>
            <rect x="19.5347" stroke-width="1.296"  y="5.13468" stroke="#F7BD13" height="4.13065" width="4.13065" fill="none"/>
            <circle connectorname="GPIO21" stroke-width="1.296"  r="2.06532" stroke="#F7BD13" cx="158.4" id="connector83pad" cy="25.2" fill="none" gorn="0.2.0.41"/>
            <circle connectorname="+5V" stroke-width="1.296"  r="2.06532" stroke="#F7BD13" cx="28.8" id="connector21pad" cy="7.2" fill="none" gorn="0.2.0.42"/>
            <circle connectorname="+3.3V" stroke-width="1.296"  r="2.06532" stroke="#F7BD13" cx="21.6" id="connector44pad" cy="32.4" fill="none" gorn="0.2.0.43"/>
            <rect x="19.5347" stroke-width="1.296"  y="30.3347" stroke="#F7BD13" height="4.13065" width="4.13065" fill="none"/>
            <circle connectorname="GND" stroke-width="1.296"  r="2.06532" stroke="#F7BD13" cx="36" id="connector22pad" cy="7.2" fill="none" gorn="0.2.0.45"/>
            <circle connectorname="SDA" stroke-width="1.296"  r="2.06532" stroke="#F7BD13" cx="28.8" id="connector46pad" cy="32.4" fill="none" gorn="0.2.0.46"/>
            <circle connectorname="TXD" stroke-width="1.296"  r="2.06532" stroke="#F7BD13" cx="43.2" id="connector23pad" cy="7.2" fill="none" gorn="0.2.0.47"/>
            <circle connectorname="SCL" stroke-width="1.296"  r="2.06532" stroke="#F7BD13" cx="36" id="connector48pad" cy="32.4" fill="none" gorn="0.2.0.48"/>
            <circle connectorname="RXD" stroke-width="1.296"  r="2.06532" stroke="#F7BD13" cx="50.4" id="connector24pad" cy="7.2" fill="none" gorn="0.2.0.49"/>
            <circle connectorname="GPIO4" stroke-width="1.296"  r="2.06532" stroke="#F7BD13" cx="43.2" id="connector50pad" cy="32.4" fill="none" gorn="0.2.0.50"/>
            <circle connectorname="GPIO18" stroke-width="1.296"  r="2.06532" stroke="#F7BD13" cx="57.6" id="connector25pad" cy="7.2" fill="none" gorn="0.2.0.51"/>
            <circle connectorname="GND" stroke-width="1.296"  r="2.06532" stroke="#F7BD13" cx="50.4" id="connector52pad" cy="32.4" fill="none" gorn="0.2.0.52"/>
            <circle connectorname="GND" stroke-width="1.296"  r="2.06532" stroke="#F7BD13" cx="64.8" id="connector26pad" cy="7.2" fill="none" gorn="0.2.0.53"/>
            <circle connectorname="GPIO17" stroke-width="1.296"  r="2.06532" stroke="#F7BD13" cx="57.6" id="connector54pad" cy="32.4" fill="none" gorn="0.2.0.54"/>
            <circle connectorname="GPIO23" stroke-width="1.296"  r="2.06532" stroke="#F7BD13" cx="72" id="connector27pad" cy="7.2" fill="none" gorn="0.2.0.55"/>
            <circle connectorname="GPIO27" stroke-width="1.296"  r="2.06532" stroke="#F7BD13" cx="64.8" id="connector56pad" cy="32.4" fill="none" gorn="0.2.0.56"/>
            <circle connectorname="GPIO24" stroke-width="1.296"  r="2.06532" stroke="#F7BD13" cx="79.2" id="connector28pad" cy="7.2" fill="none" gorn="0.2.0.57"/>
            <circle connectorname="GPIO22" stroke-width="1.296"  r="2.06532" stroke="#F7BD13" cx="72" id="connector58pad" cy="32.4" fill="none" gorn="0.2.0.58"/>
            <circle connectorname="GND" stroke-width="1.296"  r="2.06532" stroke="#F7BD13" cx="86.4" id="connector29pad" cy="7.2" fill="none" gorn="0.2.0.59"/>
            <circle connectorname="+3.3V" stroke-width="1.296"  r="2.06532" stroke="#F7BD13" cx="79.2" id="connector60pad" cy="32.4" fill="none" gorn="0.2.0.60"/>
            <circle connectorname="GPIO25" stroke-width="1.296"  r="2.06532" stroke="#F7BD13" cx="93.6" id="connector30pad" cy="7.2" fill="none" gorn="0.2.0.61"/>
            <circle connectorname="MOSI" stroke-width="1.296"  r="2.06532" stroke="#F7BD13" cx="86.4" id="connector62pad" cy="32.4" fill="none" gorn="0.2.0.62"/>
            <circle connectorname="CE0" stroke-width="1.296"  r="2.06532" stroke="#F7BD13" cx="100.8" id="connector31pad" cy="7.2" fill="none" gorn="0.2.0.63"/>
            <circle connectorname="MISO" stroke-width="1.296"  r="2.06532" stroke="#F7BD13" cx="93.6" id="connector64pad" cy="32.4" fill="none" gorn="0.2.0.64"/>
            <circle connectorname="CE1" stroke-width="1.296"  r="2.06532" stroke="#F7BD13" cx="108" id="connector32pad" cy="7.2" fill="none" gorn="0.2.0.65"/>
            <circle connectorname="SCLK" stroke-width="1.296"  r="2.06532" stroke="#F7BD13" cx="100.8" id="connector66pad" cy="32.4" fill="none" gorn="0.2.0.66"/>
            <circle connectorname="EECLK" stroke-width="1.296"  r="2.06532" stroke="#F7BD13" cx="115.2" id="connector33pad" cy="7.2" fill="none" gorn="0.2.0.67"/>
            <circle connectorname="GND" stroke-width="1.296"  r="2.06532" stroke="#F7BD13" cx="108" id="connector68pad" cy="32.4" fill="none" gorn="0.2.0.68"/>
            <circle connectorname="GND" stroke-width="1.296"  r="2.06532" stroke="#F7BD13" cx="122.4" id="connector34pad" cy="7.2" fill="none" gorn="0.2.0.69"/>
            <circle connectorname="EEDAT" stroke-width="1.296"  r="2.06532" stroke="#F7BD13" cx="115.2" id="connector70pad" cy="32.4" fill="none" gorn="0.2.0.70"/>
            <circle connectorname="GPIO12" stroke-width="1.296"  r="2.06532" stroke="#F7BD13" cx="129.6" id="connector35pad" cy="7.2" fill="none" gorn="0.2.0.71"/>
            <circle connectorname="GPIO5" stroke-width="1.296"  r="2.06532" stroke="#F7BD13" cx="122.4" id="connector72pad" cy="32.4" fill="none" gorn="0.2.0.72"/>
            <circle connectorname="GND" stroke-width="1.296"  r="2.06532" stroke="#F7BD13" cx="136.8" id="connector36pad" cy="7.2" fill="none" gorn="0.2.0.73"/>
            <circle connectorname="GPIO6" stroke-width="1.296"  r="2.06532" stroke="#F7BD13" cx="129.6" id="connector74pad" cy="32.4" fill="none" gorn="0.2.0.74"/>
            <circle connectorname="GPIO16" stroke-width="1.296"  r="2.06532" stroke="#F7BD13" cx="144" id="connector37pad" cy="7.2" fill="none" gorn="0.2.0.75"/>
            <circle connectorname="GPIO13" stroke-width="1.296"  r="2.06532" stroke="#F7BD13" cx="136.8" id="connector76pad" cy="32.4" fill="none" gorn="0.2.0.76"/>
            <circle connectorname="GPIO20" stroke-width="1.296"  r="2.06532" stroke="#F7BD13" cx="151.2" id="connector38pad" cy="7.2" fill="none" gorn="0.2.0.77"/>
            <circle connectorname="GPIO19" stroke-width="1.296"  r="2.06532" stroke="#F7BD13" cx="144" id="connector78pad" cy="32.4" fill="none" gorn="0.2.0.78"/>
            <circle connectorname="GPIO21" stroke-width="1.296"  r="2.06532" stroke="#F7BD13" cx="158.4" id="connector39pad" cy="7.2" fill="none" gorn="0.2.0.79"/>
            <circle connectorname="GPIO26" stroke-width="1.296"  r="2.06532" stroke="#F7BD13" cx="151.2" id="connector80pad" cy="32.4" fill="none" gorn="0.2.0.80"/>
            <circle connectorname="P$1" stroke-width="2.12599"  r="4.6063" stroke="#F7BD13" cx="7.2" id="connector40pad" cy="7.2" fill="none" gorn="0.2.0.81"/>
            <circle connectorname="GND" stroke-width="1.296"  r="2.06532" stroke="#F7BD13" cx="158.4" id="connector82pad" cy="32.4" fill="none" gorn="0.2.0.82"/>
            <circle connectorname="P$1" stroke-width="2.12599"  r="4.6063" stroke="#F7BD13" cx="172.8" id="connector41pad" cy="7.2" fill="none" gorn="0.2.0.83"/>
            <circle connectorname="P$1" stroke-width="2.12599"  r="4.6063" stroke="#F7BD13" cx="7.2" id="connector42pad" cy="50.4" fill="none" gorn="0.2.0.84"/>
            <circle connectorname="+3.3V" stroke-width="1.296"  r="2.06532" stroke="#F7BD13" cx="21.6" id="connector0pad" cy="50.4" fill="none" gorn="0.2.0.85"/>
            <rect x="19.5347" stroke-width="1.296"  y="48.3347" stroke="#F7BD13" height="4.13065" width="4.13065" fill="none"/>
        </g>
    </g>
</svg>
